<?xml version="1.0" encoding="UTF-8" standalone="no"?>
<svg id="svg4152" xmlns:rdf="http://www.w3.org/1999/02/22-rdf-syntax-ns#" xmlns="http://www.w3.org/2000/svg" height="142.73mm" width="229.6mm" version="1.1" xmlns:cc="http://creativecommons.org/ns#" xmlns:dc="http://purl.org/dc/elements/1.1/" viewBox="0 0 813.54349 505.74658">
<g id="layer1" transform="translate(1496.8 153.75)">
<path id="path5" fill="#0a0b09" d="m-1473-153.55c-13.103 0-23.765 10.664-23.765 23.765v458.02c0 13.105 10.662 23.765 23.765 23.765h766.01c13.105 0 23.765-10.66 23.765-23.765v-458.02c0-13.101-10.66-23.765-23.765-23.765-253.98-0.16805-541.68-0.35279-766.01 0zm117.06 3.395 1.1006 3.395 4.0284 12.443h67.695c-2.3409 0.72144-4.487 1.8876-6.3458 3.395h-60.245l10.573 31.265 51.588-0.21219c2.9282 1.8231 6.3636 2.8977 10.059 2.8977 3.6921 0 7.1324-1.0746 10.059-2.8977h50.514c0.3972 2.4512 1.2556 4.7428 2.4931 6.79h-123.02l8.4079 25.94 0.2619 0.66972c4.4407 11.333 7.9459 20.281 33.038 20.281h414.19c14.281 0 19.91-8.3351 23.967-20.851l8.451-26.079-122.46 0.03972c1.2392-2.0472 2.0995-4.3388 2.4933-6.79h51.293c2.9248 1.8231 6.3653 2.8977 10.059 2.8977 3.6921 0 7.1341-1.0746 10.059-2.8977l50.756-0.0365 10.056-31.016h-58.892c-1.8622-1.5074-4.0098-2.6736-6.3524-3.395h66.345l5.0063-15.45 7.5692 0.13919-1.4091 2.8679-4.0316 12.443h42.461c3.0504-1.0813 6.3171-1.6975 9.7308-1.6975 16.147 0 29.282 13.134 29.282 29.282 0 5.23-1.3989 10.128-3.8094 14.382l-14.306 70.493h-3.4646l13.036-64.227c-5.3064 5.3268-12.641 8.6334-20.738 8.6334-16.145 0-29.282-13.137-29.282-29.282 0-10.042 5.0839-18.915 12.808-24.189h-36.815l-21.385 65.974c-4.0944 12.635-10.913 25.549-30.426 25.549h-414.19c-29.725 0-34.622-12.503-39.358-24.594l-0.3713-0.95485-21.381-65.974h-34.879c1.2036 0.8199 2.3273 1.744 3.3917 2.7319 5.7783 5.3539 9.4193 12.978 9.4193 21.458 0 16.145-13.137 29.282-29.282 29.282-7.9732 0-15.198-3.2138-20.486-8.398l16.561 63.991h-3.5111l-18.407-71.139c-2.1881-4.1012-3.4381-8.7741-3.4381-13.736 0-7.1974 2.6206-13.787 6.9424-18.888 5.376-6.3521 13.387-10.394 22.34-10.394 3.5851 0 7.0073 0.67673 10.185 1.8633v-0.16585h40.064l-4.7941-14.787 3.2294-1.051c2.296-1.0586 2.3836-0.93755 3.5707 0.00022zm189.5 0h6.7901v15.838h133.51v-15.838h6.79v15.838h105.98c-2.3409 0.72144-4.4852 1.8876-6.349 3.395h-99.636v30.98h-6.79v-30.98h-133.51v31.052h152.9c0.3955 2.4512 1.2524 4.7428 2.4899 6.79h-177.48c1.2375-2.0472 2.0944-4.3388 2.4899-6.79h12.811v-31.052h-99.069c-1.8604-1.5074-4.0047-2.6736-6.3456-3.395h105.41zm-300.17 16.544c4.9923 0 9.0543 4.0621 9.0543 9.0545 0 0.404-0.068 0.79141-0.1222 1.1869l-17.386-4.3565c1.2901-3.429 4.579-5.8849 8.4544-5.8849zm189.13 1.8401c1.7688 0 3.4622 0.30725 5.0494 0.84876 6.184 2.1083 10.653 7.9613 10.653 14.853 0 8.6573-7.0464 15.702-15.702 15.702-8.659 0-15.702-7.0446-15.702-15.702 0-6.8919 4.4666-12.745 10.652-14.853 1.5874-0.54151 3.2808-0.84876 5.0496-0.84876zm369.74 0c1.7688 0 3.4655 0.30725 5.0526 0.84876 6.1857 2.1083 10.649 7.9613 10.649 14.853 0 8.6573-7.0447 15.702-15.702 15.702-8.6607 0-15.702-7.0446-15.702-15.702 0-6.8919 4.4651-12.745 10.649-14.853 1.5906-0.54151 3.284-0.84876 5.0528-0.84876zm189.16 0.7062c4.9924 0 9.0511 4.0605 9.0511 9.0512 0 0.4057-0.0662 0.79642-0.11883 1.1902l-17.386-4.3565c1.2901-3.429 4.5773-5.8849 8.4544-5.8849zm-689.61 1.8401c-4.7802 0-9.2061 1.5051-12.854 4.0548-5.8173 4.0706-9.6379 10.81-9.6379 18.437 0 12.4 10.09 22.492 22.492 22.492 12.4 0 22.492-10.092 22.492-22.492 0-8.6946-4.9677-16.236-12.201-19.979-3.0895-1.5957-6.5838-2.5131-10.291-2.5131zm631.75 0c-12.4 0-22.492 10.087-22.492 22.492 0 12.4 10.092 22.492 22.492 22.492s22.492-10.092 22.492-22.492c0-12.405-10.092-22.492-22.492-22.492zm-631.75 2.1219c2.0964 0 4.1195 0.3177 6.0241 0.90843 8.3008 2.5734 14.346 10.326 14.346 19.462 0 11.231-9.1394 20.37-20.37 20.37-11.232 0-20.37-9.1394-20.37-20.37 0-8.1871 4.8627-15.24 11.839-18.474 2.6023-1.2069 5.4802-1.8964 8.5307-1.8964zm631.75 0c11.232 0 20.37 9.136 20.37 20.37 0 11.231-9.1377 20.37-20.37 20.37s-20.37-9.1394-20.37-20.37c0-11.234 9.1377-20.37 20.37-20.37zm-699.21 2.7319 16.886 4.2305c-1.5549 2.7517-4.4729 4.635-7.8509 4.635-4.9296 0-8.9328-3.9597-9.0347-8.8655zm748.03 2.5463 16.886 4.2305c-1.5549 2.7534-4.4729 4.635-7.851 4.635-4.9279 0-8.9294-3.9597-9.0346-8.8655zm-470.46 3.2093c8.659 0 15.702 7.043 15.702 15.702 0 1.0406-0.1087 2.0556-0.3051 3.0436-0.5008 2.5361-1.6126 4.8515-3.1794 6.79-2.879 3.5716-7.2845 5.8683-12.218 5.8683-4.9363 0-9.3383-2.2968-12.221-5.8683-1.5651-1.9386-2.6771-4.254-3.1796-6.79-0.1935-0.98795-0.3016-2.003-0.3016-3.0436 0-8.659 7.0429-15.702 15.702-15.702zm210.16 0c8.659 0 15.702 7.043 15.702 15.702 0 1.0406-0.10864 2.0556-0.30165 3.0436-0.50076 2.5361-1.6177 4.8515-3.1828 6.79-2.8807 3.5716-7.2811 5.8683-12.217 5.8683-4.9364 0-9.3417-2.2968-12.224-5.8683-1.5634-1.9386-2.6755-4.254-3.1762-6.79-0.1935-0.98795-0.3017-2.003-0.3017-3.0436 0-8.659 7.0447-15.702 15.702-15.702zm-420.27 1.6975c-5.6171 0-10.185 4.5663-10.185 10.185 0 5.6154 4.568 10.185 10.185 10.185 5.6136 0 10.185-4.5697 10.185-10.185 0-5.6188-4.5714-10.185-10.185-10.185zm631.75 0c-5.6154 0-10.185 4.5663-10.185 10.185 0 5.6154 4.5697 10.185 10.185 10.185 5.6171 0 10.185-4.5697 10.185-10.185 0-5.6188-4.568-10.185-10.185-10.185zm-631.75 2.9706c3.9772 0 7.2144 3.2338 7.2144 7.2144 0 3.9756-3.2372 7.2144-7.2144 7.2144-3.979 0-7.2144-3.2388-7.2144-7.2144 0-3.9806 3.2354-7.2144 7.2144-7.2144zm631.75 0c3.9773 0 7.2144 3.2338 7.2144 7.2144 0 3.9756-3.2372 7.2144-7.2144 7.2144s-7.2144-3.2388-7.2144-7.2144c0-3.9806 3.2372-7.2144 7.2144-7.2144zm-631.75 6.79c-0.2343 0-0.4244 0.18842-0.4244 0.42437 0 0.46512 0.8487 0.46512 0.8487 0 0-0.23595-0.1918-0.42437-0.4243-0.42437zm631.75 0c-0.23255 0-0.42437 0.18842-0.42437 0.42437 0 0.46512 0.84875 0.46512 0.84875 0 0-0.23595-0.19182-0.42437-0.42438-0.42437zm-313.55 23.413c7.6201 0 13.796 6.1755 13.796 13.796 0 7.6184-6.1755 13.796-13.796 13.796-7.6185 0-13.796-6.1771-13.796-13.796 0-7.6201 6.177-13.796 13.796-13.796zm-339.85 68.683h672.21c9.36 0 16.975 7.8115 16.975 17.416v277.51c0 9.6028-7.615 17.419-16.975 17.419h-672.21c-9.36 0-16.975-7.8166-16.975-17.419v-277.51c0-9.6045 7.615-17.416 16.975-17.416zm54.801 51.774c-11.463 0-20.443 5.9167-20.443 13.471v134.38c0 7.5556 8.9798 13.477 20.443 13.477h562.61c11.463 0 20.443-5.9217 20.443-13.477v-134.38c0-7.5539-8.9798-13.471-20.443-13.471zm212.33 6.79h129.15c-14.58 21.178-23.142 46.805-23.142 74.405 0 27.136 8.2623 52.377 22.396 73.348h-127.59c15.264-20.499 24.309-45.885 24.309-73.348 0-27.943-9.375-53.726-25.124-74.405zm-97.945 2.2611c39.781 0 72.144 32.365 72.144 72.144 0 39.781-32.363 72.147-72.144 72.147-1.9029 0-3.789-0.0993-5.6563-0.24535-37.145-2.8993-66.488-34.027-66.488-71.902 0-37.876 29.343-69.004 66.488-71.902 1.8673-0.14598 3.7534-0.24203 5.6563-0.24203zm335.51 8.4875c18.002 0 34.27 7.5254 45.859 19.578 11.008 11.448 17.797 26.98 17.797 44.079s-6.789 32.631-17.797 44.079c-11.589 12.054-27.857 19.581-45.859 19.581-35.101 0-63.657-28.559-63.657-63.66s28.555-63.657 63.657-63.657zm-335.51 6.2264c-1.9063 0-3.7958 0.09523-5.6563 0.27849-29.022 2.8518-51.774 27.394-51.774 57.155 0 29.757 22.752 54.296 51.774 57.148 1.8605 0.18333 3.75 0.28182 5.6563 0.28182 31.67 0 57.433-25.763 57.433-57.43 0-31.67-25.763-57.433-57.433-57.433zm335.51 0c-31.669 0-57.433 25.763-57.433 57.433 0 31.667 25.765 57.43 57.433 57.43 18.715 0 35.369-9.0022 45.859-22.903 7.2602-9.6181 11.574-21.578 11.574-34.527 0-12.952-4.3139-24.912-11.574-34.53-10.491-13.903-27.144-22.903-45.859-22.903zm-335.51 6.79c27.924 0 50.643 22.718 50.643 50.643 0 27.924-22.719 50.64-50.643 50.64-1.9131 0-3.7992-0.11781-5.6563-0.32492-25.271-2.8247-44.984-24.304-44.984-50.315 0-26.013 19.713-47.497 44.984-50.322 1.8571-0.2071 3.7432-0.32159 5.6563-0.32159zm335.51 0c20.258 0 37.769 11.959 45.859 29.189 3.0623 6.5184 4.7841 13.788 4.7841 21.454 0 7.6642-1.7218 14.932-4.7841 21.451-8.0903 17.228-25.601 29.189-45.859 29.189-27.926 0-50.643-22.716-50.643-50.64 0-27.926 22.718-50.643 50.643-50.643zm-335.51 4.3001c-1.9165 0-3.8009 0.12884-5.6563 0.35806-22.894 2.7992-40.687 22.347-40.687 45.985 0 23.634 17.793 43.183 40.687 45.982 1.8554 0.22746 3.7398 0.35805 5.6563 0.35805 25.553 0 46.343-20.789 46.343-46.34 0-25.554-20.791-46.343-46.343-46.343zm335.51 0c-25.553 0-46.343 20.789-46.343 46.343 0 25.551 20.791 46.34 46.343 46.34 23.3 0 42.631-17.287 45.859-39.706 0.31234-2.1694 0.48396-4.3816 0.48396-6.6342 0-2.2543-0.17162-4.4681-0.48396-6.6375-3.2287-22.419-22.559-39.706-45.859-39.706zm-335.51 10.185c6.5354 0 12.654 1.7687 17.95 4.814l-3.1596 5.5103c4.5239 2.5955 8.3032 6.3479 10.934 10.855l5.4804-3.1994c3.1133 5.3234 4.9313 11.491 4.95 18.086l-6.3956 0.0928c0 5.23-1.3729 10.371-3.9718 14.87l5.4936 3.1762c-3.1726 5.4779-7.7309 10.039-13.202 13.219l-3.1828-5.497c-4.495 2.604-9.6364 3.9867-14.866 3.9918v6.3922l-0.037 0.003c-1.9283 0-3.8077-0.1954-5.6562-0.48735-4.439-0.70277-8.6101-2.2004-12.36-4.3664l3.1728-5.5003c-4.5188-2.6057-8.2918-6.3694-10.911-10.878l-5.4904 3.1861c-3.098-5.32-4.9017-11.48-4.9102-18.066l6.3955-0.0431c0-5.2096 1.3636-10.334 3.9421-14.82l-5.5036-3.1663c3.159-5.4846 7.7112-10.054 13.179-13.245l3.1927 5.4904c2.8773-1.6771 6.0255-2.8431 9.2932-3.4746 1.8248-0.35138 3.6876-0.54027 5.5634-0.54706l-0.02-6.3889zm335.51 0c6.5354 0 12.654 1.7687 17.95 4.814l-3.1596 5.5103c4.5238 2.5955 8.3049 6.3479 10.934 10.855l5.4804-3.1994c3.1132 5.3234 4.933 11.489 4.9499 18.086l-6.3921 0.0928c0 5.23-1.3763 10.37-3.9786 14.866l5.5004 3.1795c-3.1726 5.4779-7.7326 10.039-13.209 13.219l-3.1828-5.497c-4.495 2.604-9.6366 3.9884-14.863 3.9918v6.3922l-0.0373 0.003c-6.5626 0-12.703-1.7847-18.013-4.8538l3.173-5.5003c-4.5188-2.6074-8.2935-6.3694-10.914-10.878l-5.4904 3.1895c-3.098-5.32-4.9017-11.481-4.9102-18.069l6.3955-0.0431c0-5.2114 1.3619-10.334 3.9421-14.82l-5.5036-3.1663c3.1608-5.4846 7.7111-10.054 13.179-13.245l3.1928 5.4904c4.4916-2.6159 9.6283-4.0047 14.857-4.0216l-0.0204-6.3889zm-492.61 129.52c-12.256 0-22.23 9.8999-22.23 22.068v28.009c0 12.168 9.9741 22.068 22.23 22.068h647.97c12.258 0 22.233-9.8999 22.233-22.068v-28.009c0-12.168-9.9757-22.068-22.233-22.068zm0 3.395h81.152 566.82c10.387 0 18.838 8.3755 18.838 18.673v28.009c0 10.295-8.4514 18.673-18.838 18.673h-647.97c-10.384 0-18.835-8.3772-18.835-18.673v-28.009c0-10.297 8.4514-18.673 18.835-18.673zm-48.783 97.262c4.9923 0 9.0543 4.0605 9.0543 9.0512 0 0.4091-0.064 0.79805-0.1188 1.1936l-17.386-4.3565c1.2867-3.429 4.5741-5.8882 8.4512-5.8882zm747.92 0c4.9924 0 9.0511 4.0605 9.0511 9.0512 0 0.4091-0.0662 0.79805-0.11883 1.1936l-17.386-4.3565c1.2884-3.429 4.5773-5.8882 8.4544-5.8882zm-756.96 9.2434 16.889 4.2272c-1.5549 2.7534-4.4762 4.635-7.8542 4.635-4.9296 0-8.9311-3.9598-9.0347-8.8622zm747.92 0 16.886 4.2272c-1.5549 2.7534-4.4712 4.635-7.851 4.635-4.9279 0-8.9311-3.9581-9.0346-8.8622z"/>
</g>
</svg>
